<?xml version="1.0" standalone="no"?>
<!DOCTYPE svg PUBLIC "-//W3C//DTD SVG 20010904//EN"
 "http://www.w3.org/TR/2001/REC-SVG-20010904/DTD/svg10.dtd">
<svg version="1.0" xmlns="http://www.w3.org/2000/svg"
 width="48.000000pt" height="48.000000pt" viewBox="0 0 48.000000 48.000000"
 preserveAspectRatio="xMidYMid meet">

<g transform="translate(0.000000,48.000000) scale(0.100000,-0.100000)"
fill="#000000" stroke="none">
<path d="M179 431 c-14 -5 -38 -16 -53 -26 -25 -17 -27 -17 -46 0 -20 18 -20
17 -20 -33 l0 -52 52 0 c50 0 51 0 34 19 -17 19 -17 20 8 36 35 23 96 30 139
16 45 -15 94 -70 103 -116 5 -26 11 -35 26 -35 18 0 19 4 13 38 -16 88 -86
150 -176 157 -30 3 -66 1 -80 -4z"/>
<path d="M218 338 c-38 -44 -36 -71 7 -104 19 -14 35 -32 35 -40 0 -21 -22
-28 -35 -11 -7 10 -19 17 -28 17 -21 0 -10 -37 14 -51 11 -5 19 -16 19 -24 0
-8 5 -15 10 -15 6 0 10 4 10 10 0 5 11 20 25 34 34 34 32 52 -10 90 -19 18
-35 40 -35 49 0 21 19 22 26 2 4 -8 14 -15 24 -15 22 0 16 35 -10 53 -9 7 -19
17 -21 24 -2 8 -15 0 -31 -19z"/>
<path d="M45 203 c9 -52 46 -106 92 -134 54 -34 152 -34 206 0 36 22 39 23 57
6 20 -18 20 -17 20 33 l0 52 -52 0 c-50 -1 -52 -2 -33 -16 20 -15 20 -15 -3
-34 -79 -65 -217 -16 -244 86 -9 33 -17 44 -31 44 -17 0 -18 -5 -12 -37z"/>
</g>
</svg>
